<?xml version="1.0" encoding="UTF-8" standalone="no"?>
<!-- Generator: Adobe Illustrator 26.0.1, SVG Export Plug-In . SVG Version: 6.00 Build 0)  -->

<svg
   version="1.1"
   x="0px"
   y="0px"
   viewBox="0 0 163.79 29.999999"
   xml:space="preserve"
   id="svg94"
   sodipodi:docname="github.svg"
   inkscape:version="1.2.1 (9c6d41e410, 2022-07-14, custom)"
   width="163.78999"
   height="30"
   inkscape:export-filename="github.png"
   inkscape:export-xdpi="384"
   inkscape:export-ydpi="384"
   xmlns:inkscape="http://www.inkscape.org/namespaces/inkscape"
   xmlns:sodipodi="http://sodipodi.sourceforge.net/DTD/sodipodi-0.dtd"
   xmlns="http://www.w3.org/2000/svg"
   xmlns:svg="http://www.w3.org/2000/svg"><defs
   id="defs98"><inkscape:path-effect
     effect="fillet_chamfer"
     id="path-effect727"
     is_visible="true"
     lpeversion="1"
     nodesatellites_param="F,0,0,1,0,0,0,1 @ F,0,0,1,0,18.513526,0,1 @ F,0,0,1,0,8.5520481,0,1 @ F,0,0,1,0,0,0,1 @ F,0,0,1,0,0,0,1 @ F,0,0,1,0,0,0,1 @ F,0,0,1,0,0,0,1 @ F,0,0,1,0,0,0,1"
     unit="px"
     method="auto"
     mode="F"
     radius="0"
     chamfer_steps="1"
     flexible="false"
     use_knot_distance="true"
     apply_no_radius="true"
     apply_with_radius="true"
     only_selected="false"
     hide_knots="false" /><inkscape:path-effect
     effect="offset"
     id="path-effect725"
     is_visible="true"
     lpeversion="1.2"
     linejoin_type="miter"
     unit="px"
     offset="0"
     miter_limit="4"
     attempt_force_join="false"
     update_on_knot_move="true" /><clipPath
     id="clip0"><rect
       width="71"
       height="55"
       fill="#ffffff"
       id="rect1030"
       x="0"
       y="0" /></clipPath></defs><sodipodi:namedview
   id="namedview96"
   pagecolor="#ffffff"
   bordercolor="#000000"
   borderopacity="0.25"
   inkscape:showpageshadow="2"
   inkscape:pageopacity="0.0"
   inkscape:pagecheckerboard="0"
   inkscape:deskcolor="#000000"
   showgrid="false"
   inkscape:zoom="5.6568542"
   inkscape:cx="90.774834"
   inkscape:cy="5.7452426"
   inkscape:window-width="1920"
   inkscape:window-height="1003"
   inkscape:window-x="0"
   inkscape:window-y="40"
   inkscape:window-maximized="1"
   inkscape:current-layer="layer1" />
<style
   type="text/css"
   id="style74">
	.st0{display:none;}
	.st1{display:inline;}
	.st2{fill:#2091C0;}
	.st3{fill:#FFFFFF;}
	.st4{font-family:'JetBrainsMono-Medium';}
	.st5{font-size:47.0914px;}
</style>


<g
   inkscape:groupmode="layer"
   id="layer1"
   inkscape:label="background"
   style="display:inline"><rect
     style="fill:#333333;fill-opacity:1;stroke-width:0.782119"
     id="rect1506"
     width="163.78999"
     height="30"
     x="0"
     y="0"
     ry="15"
     inkscape:label="color_rounded" /></g><g
   id="Слой_2"
   transform="matrix(0.5,0,0,0.5,-1.06732,2.23641)"
   inkscape:label="foreground"
   style="display:inline">
	
<text
   xml:space="preserve"
   style="font-size:44.1989px;font-family:'DejaVu Sans Mono for Powerline';-inkscape-font-specification:'DejaVu Sans Mono for Powerline';display:inline;fill:#ffffff;stroke-width:1.38121"
   x="79.747894"
   y="37.129383"
   id="text227"
   inkscape:label="text"><tspan
     sodipodi:role="line"
     x="79.747894"
     y="37.129383"
     style="font-style:normal;font-variant:normal;font-weight:bold;font-stretch:normal;font-size:44.1989px;font-family:Nunito;-inkscape-font-specification:'Nunito Bold';stroke-width:1.38121"
     id="tspan414">@gmankab</tspan></text><path
   d="m 47.132343,0.52718 c -13.804907,0 -24.997703,11.476052 -24.997703,25.633465 0,11.32499 7.162591,20.931641 17.096906,24.322685 1.250808,0.234449 1.706623,-0.557043 1.706623,-1.236827 0,-0.607398 -0.02161,-2.220307 -0.03377,-4.35879 -6.95387,1.548395 -8.421073,-3.436679 -8.421073,-3.436679 C 31.346091,38.489575 29.707,37.701215 29.707,37.701215 c -2.26987,-1.589307 0.171877,-1.557835 0.171877,-1.557835 2.509287,0.180971 3.829155,2.642026 3.829155,2.642026 2.229966,3.916617 5.851932,2.78522 7.276162,2.129041 0.227136,-1.655398 0.871727,-2.785222 1.586912,-3.425664 -5.551122,-0.646738 -11.387705,-2.846591 -11.387705,-12.668819 0,-2.797806 0.974555,-5.085781 2.573743,-6.878076 -0.257833,-0.648312 -1.115748,-3.254146 0.244023,-6.783664 0,0 2.099513,-0.689224 6.875596,2.627862 1.993611,-0.569631 4.133028,-0.852873 6.258629,-0.862316 2.122534,0.0094 4.261951,0.292685 6.258635,0.862316 4.773015,-3.317086 6.867923,-2.627862 6.867923,-2.627862 1.364376,3.529518 0.506461,6.135352 0.248626,6.783664 1.60226,1.792295 2.570675,4.08027 2.570675,6.878076 0,9.847405 -5.84579,12.014212 -11.41533,12.648363 0.897816,0.791506 1.697412,2.355634 1.697412,4.747462 0,3.425665 -0.03069,6.190427 -0.03069,7.030714 0,0.686078 0.449675,1.483876 1.718899,1.233679 9.926643,-3.397338 17.083095,-12.997694 17.083095,-24.319537 0,-14.157413 -11.19433,-25.633465 -25.002308,-25.633465"
   style="display:inline;fill:#ffffff;fill-opacity:1;fill-rule:evenodd;stroke:none;stroke-width:1.55403"
   id="path3673"
   inkscape:label="logo" /></g></svg>
