<?xml version="1.0" encoding="UTF-8" standalone="no"?>
<!-- Generator: Adobe Illustrator 26.0.1, SVG Export Plug-In . SVG Version: 6.00 Build 0)  -->

<svg
   version="1.1"
   x="0px"
   y="0px"
   viewBox="0 0 163.15501 29.999999"
   xml:space="preserve"
   id="svg94"
   sodipodi:docname="python.svg"
   inkscape:version="1.2.1 (9c6d41e410, 2022-07-14, custom)"
   width="163.155"
   height="30"
   inkscape:export-filename="python.png"
   inkscape:export-xdpi="384"
   inkscape:export-ydpi="384"
   xmlns:inkscape="http://www.inkscape.org/namespaces/inkscape"
   xmlns:sodipodi="http://sodipodi.sourceforge.net/DTD/sodipodi-0.dtd"
   xmlns:xlink="http://www.w3.org/1999/xlink"
   xmlns="http://www.w3.org/2000/svg"
   xmlns:svg="http://www.w3.org/2000/svg"><defs
   id="defs98"><inkscape:path-effect
     effect="fillet_chamfer"
     id="path-effect727"
     is_visible="true"
     lpeversion="1"
     nodesatellites_param="F,0,0,1,0,0,0,1 @ F,0,0,1,0,18.513526,0,1 @ F,0,0,1,0,8.5520481,0,1 @ F,0,0,1,0,0,0,1 @ F,0,0,1,0,0,0,1 @ F,0,0,1,0,0,0,1 @ F,0,0,1,0,0,0,1 @ F,0,0,1,0,0,0,1"
     unit="px"
     method="auto"
     mode="F"
     radius="0"
     chamfer_steps="1"
     flexible="false"
     use_knot_distance="true"
     apply_no_radius="true"
     apply_with_radius="true"
     only_selected="false"
     hide_knots="false" /><inkscape:path-effect
     effect="offset"
     id="path-effect725"
     is_visible="true"
     lpeversion="1.2"
     linejoin_type="miter"
     unit="px"
     offset="0"
     miter_limit="4"
     attempt_force_join="false"
     update_on_knot_move="true" /><clipPath
     id="clip0"><rect
       width="71"
       height="55"
       fill="#ffffff"
       id="rect1030"
       x="0"
       y="0" /></clipPath><linearGradient
     gradientUnits="userSpaceOnUse"
     y2="131.85291"
     x2="110.14919"
     y1="77.070274"
     x1="55.549179"
     id="linearGradient9521"
     xlink:href="#linearGradient9515"
     inkscape:collect="always" /><linearGradient
     id="linearGradient9515"
     inkscape:collect="always"><stop
       id="stop9517"
       offset="0"
       style="stop-color:#387eb8;stop-opacity:1" /><stop
       id="stop9519"
       offset="1"
       style="stop-color:#366994;stop-opacity:1" /></linearGradient><linearGradient
     gradientUnits="userSpaceOnUse"
     y2="168.1012"
     x2="147.77737"
     y1="111.92053"
     x1="89.136749"
     id="linearGradient11307"
     xlink:href="#linearGradient11301"
     inkscape:collect="always" /><linearGradient
     id="linearGradient11301"
     inkscape:collect="always"><stop
       id="stop11303"
       offset="0"
       style="stop-color:#ffe052;stop-opacity:1" /><stop
       id="stop11305"
       offset="1"
       style="stop-color:#ffc331;stop-opacity:1" /></linearGradient></defs><sodipodi:namedview
   id="namedview96"
   pagecolor="#ffffff"
   bordercolor="#000000"
   borderopacity="0.25"
   inkscape:showpageshadow="2"
   inkscape:pageopacity="0.0"
   inkscape:pagecheckerboard="0"
   inkscape:deskcolor="#000000"
   showgrid="false"
   inkscape:zoom="5.6568542"
   inkscape:cx="65.318989"
   inkscape:cy="-3.0935922"
   inkscape:window-width="1920"
   inkscape:window-height="1003"
   inkscape:window-x="0"
   inkscape:window-y="40"
   inkscape:window-maximized="1"
   inkscape:current-layer="svg94"
   showguides="false" />
<style
   type="text/css"
   id="style74">
	.st0{display:none;}
	.st1{display:inline;}
	.st2{fill:#2091C0;}
	.st3{fill:#FFFFFF;}
	.st4{font-family:'JetBrainsMono-Medium';}
	.st5{font-size:47.0914px;}
</style>


<g
   inkscape:groupmode="layer"
   id="layer1"
   inkscape:label="background"
   style="display:inline"><rect
     style="fill:#333333;fill-opacity:1;stroke-width:0.780601"
     id="rect1506"
     width="163.155"
     height="30"
     x="0"
     y="0"
     ry="15"
     inkscape:label="color_rounded" /></g><g
   id="Слой_2"
   transform="matrix(0.5,0,0,0.5,-1.06732,2.23641)"
   inkscape:label="foreground"
   style="display:inline">
	
<g
   id="g1894"
   transform="matrix(0.4528118,0,0,0.4551823,1.7864096,-30.183401)"
   inkscape:label="python"
   style="display:inline"><path
     style="color:#000000;display:inline;overflow:visible;visibility:visible;opacity:1;fill:url(#linearGradient9521);fill-opacity:1;fill-rule:nonzero;stroke:none;stroke-width:1;stroke-linecap:butt;stroke-linejoin:miter;stroke-miterlimit:4;stroke-dasharray:none;stroke-dashoffset:0;stroke-opacity:1;marker:none;marker-start:none;marker-mid:none;marker-end:none"
     d="M 99.75,67.46875 C 71.718268,67.468752 73.46875,79.625 73.46875,79.625 L 73.5,92.21875 h 26.75 V 96 H 62.875 c 0,0 -17.9375,-2.034276 -17.9375,26.25 -2e-6,28.28427 15.65625,27.28125 15.65625,27.28125 h 9.34375 v -13.125 c 0,0 -0.503652,-15.65625 15.40625,-15.65625 15.9099,0 26.53125,0 26.53125,0 0,0 14.90625,0.24096 14.90625,-14.40625 0,-14.647206 0,-24.21875 0,-24.21875 0,-2e-6 2.26318,-14.65625 -27.03125,-14.65625 z M 85,75.9375 c 2.661429,-2e-6 4.8125,2.151071 4.8125,4.8125 2e-6,2.661429 -2.151071,4.8125 -4.8125,4.8125 -2.661429,2e-6 -4.8125,-2.151071 -4.8125,-4.8125 -2e-6,-2.661429 2.151071,-4.8125 4.8125,-4.8125 z"
     id="path8615"
     inkscape:label="blue" /><path
     id="path8620"
     d="m 100.5461,177.31485 c 28.03174,0 26.28125,-12.15625 26.28125,-12.15625 l -0.0312,-12.59375 h -26.75 v -3.78125 h 37.375 c 0,0 17.9375,2.03427 17.9375,-26.25001 10e-6,-28.284267 -15.65625,-27.281247 -15.65625,-27.281247 h -9.34375 v 13.124997 c 0,0 0.50366,15.65625 -15.40625,15.65625 -15.909902,0 -26.531252,0 -26.531252,0 0,0 -14.90625,-0.24096 -14.90625,14.40626 0,14.6472 0,24.21875 0,24.21875 0,0 -2.26318,14.65625 27.031252,14.65625 z m 14.75,-8.46875 c -2.66143,0 -4.8125,-2.15107 -4.8125,-4.8125 0,-2.66143 2.15107,-4.8125 4.8125,-4.8125 2.66143,0 4.8125,2.15107 4.8125,4.8125 1e-5,2.66143 -2.15107,4.8125 -4.8125,4.8125 z"
     style="color:#000000;display:inline;overflow:visible;visibility:visible;opacity:1;fill:url(#linearGradient11307);fill-opacity:1;fill-rule:nonzero;stroke:none;stroke-width:1;stroke-linecap:butt;stroke-linejoin:miter;stroke-miterlimit:4;stroke-dasharray:none;stroke-dashoffset:0;stroke-opacity:1;marker:none;marker-start:none;marker-mid:none;marker-end:none"
     inkscape:label="yellow" /></g><text
   xml:space="preserve"
   style="font-size:22.0994px;font-family:'DejaVu Sans Mono for Powerline';-inkscape-font-specification:'DejaVu Sans Mono for Powerline';display:inline;fill:#ffffff;stroke-width:0.690605"
   x="38.806633"
   y="20.801071"
   id="text227-3"
   inkscape:label="text"
   transform="matrix(2,0,0,2,2.13464,-4.47282)"><tspan
     sodipodi:role="line"
     id="tspan225-6"
     x="38.806633"
     y="20.801071"
     style="font-style:normal;font-variant:normal;font-weight:bold;font-stretch:normal;font-size:22.0994px;font-family:Nunito;-inkscape-font-specification:'Nunito Bold';stroke-width:0.690605">python dev</tspan></text></g></svg>
